<svg xmlns="http://www.w3.org/2000/svg" width="40" height="41" viewBox="0 0 40 41">
  <defs>
    <style>
      .cls-1, .cls-3 {
        fill: none;
      }

      .cls-1 {
        stroke: #fff;
        stroke-width: 2px;
      }

      .cls-2 {
        stroke: none;
      }
    </style>
  </defs>
  <g id="Group_184" data-name="Group 184" transform="translate(-61 -148)">
    <g id="Rectangle_88" data-name="Rectangle 88" class="cls-1" transform="translate(65 159)">
      <path class="cls-2" d="M5,0H27a5,5,0,0,1,5,5V30a0,0,0,0,1,0,0H0a0,0,0,0,1,0,0V5A5,5,0,0,1,5,0Z"/>
      <path class="cls-3" d="M5,1H27a4,4,0,0,1,4,4V28a1,1,0,0,1-1,1H2a1,1,0,0,1-1-1V5A4,4,0,0,1,5,1Z"/>
    </g>
    <g id="Rectangle_89" data-name="Rectangle 89" class="cls-1" transform="translate(77 148)">
      <rect class="cls-2" width="8" height="8"/>
      <rect class="cls-3" x="1" y="1" width="6" height="6"/>
    </g>
    <g id="Rectangle_90" data-name="Rectangle 90" class="cls-1" transform="translate(61 169)">
      <rect class="cls-2" width="6" height="12"/>
      <rect class="cls-3" x="1" y="1" width="4" height="10"/>
    </g>
    <g id="Rectangle_91" data-name="Rectangle 91" class="cls-1" transform="translate(95 169)">
      <rect class="cls-2" width="6" height="12"/>
      <rect class="cls-3" x="1" y="1" width="4" height="10"/>
    </g>
    <g id="Rectangle_96" data-name="Rectangle 96" class="cls-1" transform="translate(80 154)">
      <rect class="cls-2" width="2" height="6"/>
      <rect class="cls-3" x="1" y="1" height="4"/>
    </g>
    <g id="Rectangle_94" data-name="Rectangle 94" class="cls-1" transform="translate(71 179)">
      <rect class="cls-2" width="20" height="10"/>
      <rect class="cls-3" x="1" y="1" width="18" height="8"/>
    </g>
    <g id="Rectangle_92" data-name="Rectangle 92" class="cls-1" transform="translate(71 166)">
      <rect class="cls-2" width="7" height="7"/>
      <rect class="cls-3" x="1" y="1" width="5" height="5"/>
    </g>
    <g id="Rectangle_93" data-name="Rectangle 93" class="cls-1" transform="translate(84 166)">
      <rect class="cls-2" width="7" height="7"/>
      <rect class="cls-3" x="1" y="1" width="5" height="5"/>
    </g>
    <g id="Rectangle_95" data-name="Rectangle 95" class="cls-1" transform="translate(77 179)">
      <rect class="cls-2" width="8" height="10"/>
      <rect class="cls-3" x="1" y="1" width="6" height="8"/>
    </g>
  </g>
</svg>
