<svg xmlns="http://www.w3.org/2000/svg" xmlns:xlink="http://www.w3.org/1999/xlink" width="54" height="32.125" viewBox="0 0 54 32.125">
  <defs>
    <style>
      .cls-1, .cls-2, .cls-4, .cls-7 {
        fill: none;
      }

      .cls-1, .cls-4 {
        stroke: #777583;
        stroke-width: 2px;
      }

      .cls-1, .cls-2 {
        stroke-linejoin: round;
      }

      .cls-3 {
        clip-path: url(#clip-path);
      }

      .cls-5, .cls-6 {
        stroke: none;
      }

      .cls-6 {
        fill: #777583;
      }
    </style>
    <clipPath id="clip-path">
      <path id="Path_12" data-name="Path 12" class="cls-1" d="M27,0C41.912,0,54,7.3,54,7.3S41.912,23.125,27,23.125,0,7.3,0,7.3,12.088,0,27,0Z" transform="translate(272 159)"/>
    </clipPath>
  </defs>
  <g id="Group_186" data-name="Group 186" transform="translate(-272 -150)">
    <g id="Path_10" data-name="Path 10" class="cls-2" transform="translate(272 150)">
      <path class="cls-5" d="M27,0C41.912,0,54,16,54,16S41.912,32,27,32,0,16,0,16,12.088,0,27,0Z"/>
      <path class="cls-6" d="M 27 2 C 23.90608978271484 2 20.6688117980957 2.771459579467773 17.37808990478516 4.292940139770508 C 14.68127822875977 5.539829254150391 11.94504165649414 7.288389205932617 9.245399475097656 9.490049362182617 C 6.16009521484375 12.00623893737793 3.822189331054688 14.55271339416504 2.584426879882812 15.99960327148438 C 5.664844512939453 19.59691619873047 15.56386184692383 30 27 30 C 30.09391021728516 30 33.33119201660156 29.22854042053223 36.62191009521484 27.70705986022949 C 39.31871795654297 26.46017074584961 42.05495071411133 24.71160888671875 44.75458908081055 22.50994873046875 C 47.84018707275391 19.9935302734375 50.17822265625 17.44684028625488 51.4158935546875 16.00001907348633 C 50.17787551879883 14.55278968811035 47.83990097045898 12.00623893737793 44.75458908081055 9.490049362182617 C 42.05495071411133 7.288389205932617 39.31871795654297 5.539829254150391 36.62191009521484 4.292940139770508 C 33.33119201660156 2.771459579467773 30.09391021728516 2 27 2 M 27 0 C 41.91168212890625 0 54 16 54 16 C 54 16 41.91168212890625 32 27 32 C 12.08831024169922 32 0 16 0 16 C 0 16 12.08831024169922 0 27 0 Z"/>
    </g>
    <g id="Path_11" data-name="Path 11" class="cls-2" transform="translate(272 159)">
      <path class="cls-5" d="M27,0C41.912,0,54,7.3,54,7.3S41.912,23.125,27,23.125,0,7.3,0,7.3,12.088,0,27,0Z"/>
      <path class="cls-6" d="M 27 2 C 23.75712966918945 2 20.38114166259766 2.36482048034668 16.9658203125 3.084329605102539 C 14.21617889404297 3.663589477539062 11.43534088134766 4.472660064697266 8.700550079345703 5.489059448242188 C 6.359966278076172 6.358949661254883 4.450267791748047 7.235507011413574 3.122222900390625 7.896689414978027 C 4.443153381347656 9.371111869812012 6.558578491210938 11.55459403991699 9.237751007080078 13.71557998657227 C 11.93738174438477 15.89307022094727 14.67378997802734 17.62252044677734 17.3709602355957 18.85588073730469 C 20.66365051269531 20.3615608215332 23.90332984924316 21.125 27 21.125 C 30.09667015075684 21.125 33.33634185791016 20.3615608215332 36.6290397644043 18.85588073730469 C 39.32621002197266 17.62252044677734 42.0626106262207 15.89307022094727 44.76224136352539 13.71557998657227 C 47.4414176940918 11.55459403991699 49.55702590942383 9.370909690856934 50.87778472900391 7.896713256835938 C 49.5495491027832 7.235415458679199 47.64003372192383 6.358949661254883 45.2994499206543 5.489059448242188 C 42.56465911865234 4.472660064697266 39.78382110595703 3.663589477539062 37.0341796875 3.084329605102539 C 33.61885833740234 2.36482048034668 30.24287033081055 2 27 2 M 27 0 C 41.91168212890625 0 54 7.300000190734863 54 7.300000190734863 C 54 7.300000190734863 41.91168212890625 23.125 27 23.125 C 12.08831024169922 23.125 0 7.300000190734863 0 7.300000190734863 C 0 7.300000190734863 12.08831024169922 0 27 0 Z"/>
    </g>
    <g id="Mask_Group_3" data-name="Mask Group 3" class="cls-3">
      <g id="Ellipse_29" data-name="Ellipse 29" class="cls-4" transform="translate(285 153)">
        <circle class="cls-5" cx="14" cy="14" r="14"/>
        <circle class="cls-7" cx="14" cy="14" r="13"/>
      </g>
      <g id="Ellipse_30" data-name="Ellipse 30" class="cls-4" transform="translate(294 162)">
        <circle class="cls-5" cx="5" cy="5" r="5"/>
        <circle class="cls-7" cx="5" cy="5" r="4"/>
      </g>
    </g>
  </g>
</svg>
