<svg xmlns="http://www.w3.org/2000/svg" width="33" height="41.696" viewBox="0 0 33 41.696">
  <defs>
    <style>
      .cls-1, .cls-2, .cls-6 {
        fill: none;
      }

      .cls-2, .cls-3 {
        stroke: #777583;
        stroke-width: 2px;
      }

      .cls-3 {
        fill: #d8d6de;
        stroke-linecap: round;
        stroke-linejoin: round;
      }

      .cls-4, .cls-5 {
        stroke: none;
      }

      .cls-5 {
        fill: #777583;
      }
    </style>
  </defs>
  <g id="Group_185" data-name="Group 185" transform="translate(-63 -146.304)">
    <g id="Path_9" data-name="Path 9" class="cls-1" transform="translate(67 149)">
      <path class="cls-4" d="M12.5,0c4.743,0,8.869,3.064,11.112,7.853A15.976,15.976,0,0,1,25,14.5C25,22.508,19.4,29,12.5,29S0,22.508,0,14.5C0,8.374,3.275,3.135,8.18.889A10.61,10.61,0,0,1,12.5,0Z"/>
      <path class="cls-5" d="M 12.5 2 C 11.25609970092773 2 9.987730026245117 2.25670051574707 9.020099639892578 2.704280853271484 L 9.016579627990723 2.705909729003906 L 9.013050079345703 2.707529067993164 C 6.95050048828125 3.651880264282227 5.203130722045898 5.232370376586914 3.959859848022461 7.278139114379883 C 2.677709579467773 9.387870788574219 2 11.88515090942383 2 14.5 C 2 21.39252090454102 6.71027946472168 27 12.5 27 C 18.28972053527832 27 23 21.39252090454102 23 14.5 C 23 12.43261909484863 22.56357002258301 10.32032012939453 21.80085945129395 8.701000213623047 C 19.83506965637207 4.505050659179688 16.35811042785645 2 12.5 2 M 12.5 0 C 17.24271011352539 0 21.36850929260254 3.063909530639648 23.6119499206543 7.852510452270508 C 24.45170021057129 9.635379791259766 25 11.99341011047363 25 14.5 C 25 22.50812911987305 19.40356063842773 29 12.5 29 C 5.596439361572266 29 0 22.50812911987305 0 14.5 C 0 8.373830795288086 3.275119781494141 3.135000228881836 8.180459976196289 0.8890705108642578 C 9.32742977142334 0.3585300445556641 10.87761974334717 0 12.5 0 Z"/>
    </g>
    <g id="Ellipse_25" data-name="Ellipse 25" class="cls-2" transform="translate(72 159)">
      <ellipse class="cls-4" cx="3" cy="3.5" rx="3" ry="3.5"/>
      <ellipse class="cls-6" cx="3" cy="3.5" rx="2" ry="2.5"/>
    </g>
    <g id="Ellipse_27" data-name="Ellipse 27" class="cls-2" transform="translate(63 159)">
      <ellipse class="cls-4" cx="3" cy="3.5" rx="3" ry="3.5"/>
      <ellipse class="cls-6" cx="3" cy="3.5" rx="2" ry="2.5"/>
    </g>
    <g id="Ellipse_26" data-name="Ellipse 26" class="cls-2" transform="translate(81 159)">
      <ellipse class="cls-4" cx="3" cy="3.5" rx="3" ry="3.5"/>
      <ellipse class="cls-6" cx="3" cy="3.5" rx="2" ry="2.5"/>
    </g>
    <g id="Ellipse_28" data-name="Ellipse 28" class="cls-2" transform="translate(90 159)">
      <ellipse class="cls-4" cx="3" cy="3.5" rx="3" ry="3.5"/>
      <ellipse class="cls-6" cx="3" cy="3.5" rx="2" ry="2.5"/>
    </g>
    <path id="Path_7" data-name="Path 7" class="cls-2" d="M10,2.5C10,3.881,7.761,5,5,5S0,3.881,0,2.5" transform="translate(75 167)"/>
    <g id="Path_8" data-name="Path 8" class="cls-1" transform="translate(68 179)">
      <path class="cls-4" d="M11.5,0C17.851,0,23,4.029,23,9H0C0,4.029,5.149,0,11.5,0Z"/>
      <path class="cls-5" d="M 11.5 2 C 8.872920036315918 2 6.422769546508789 2.785230159759521 4.600889205932617 4.211050033569336 C 3.569524765014648 5.018206119537354 2.823093414306641 5.972146511077881 2.401168823242188 7 L 20.59883117675781 7 C 20.17690658569336 5.972146511077881 19.43047523498535 5.018206119537354 18.39910888671875 4.211050033569336 C 16.57723045349121 2.785230159759521 14.12707996368408 2 11.5 2 M 11.5 0 C 17.85127067565918 0 23 4.029439926147461 23 9 C 18.36824989318848 9 4.126890182495117 9 0 9 C 0 4.029439926147461 5.14872932434082 0 11.5 0 Z"/>
    </g>
    <path id="Path_6" data-name="Path 6" class="cls-3" d="M3178.5,153.625c1.858,5.227,9.375,7.625,19.5,6.625-4.428-3.25-5.875-8.625-11.125-9.75A8.6,8.6,0,0,0,3178.5,153.625Z" transform="translate(-3103 -3)"/>
  </g>
</svg>
